<?xml version="1.0" standalone="no"?>
<!DOCTYPE svg PUBLIC "-//W3C//DTD SVG 20010904//EN"
 "http://www.w3.org/TR/2001/REC-SVG-20010904/DTD/svg10.dtd">
<svg version="1.0" xmlns="http://www.w3.org/2000/svg"
 width="260.000000pt" height="260.000000pt" viewBox="0 0 260.000000 260.000000"
 preserveAspectRatio="xMidYMid meet">
<metadata>
Created by potrace 1.11, written by Peter Selinger 2001-2013
</metadata>
<g transform="translate(0.000000,260.000000) scale(0.100000,-0.100000)"
fill="#000000" stroke="none">
<path d="M300 2463 c-7 -32 -13 -96 -12 -143 0 -53 -3 -87 -10 -92 -7 -4 -13
-51 -16 -120 -4 -103 -2 -115 16 -136 12 -13 24 -36 27 -52 3 -16 13 -31 21
-34 8 -3 14 -11 14 -17 0 -6 15 -26 34 -43 18 -18 39 -49 45 -69 16 -49 5
-159 -19 -187 -10 -11 -20 -38 -24 -60 -3 -22 -11 -40 -16 -40 -6 0 -10 -46
-10 -115 0 -70 4 -115 10 -115 6 0 10 -17 10 -37 0 -65 23 -207 36 -220 6 -7
15 -43 19 -80 4 -37 12 -71 17 -74 12 -7 24 -452 14 -493 -3 -14 -12 -26 -20
-26 -27 0 -66 -51 -66 -86 0 -19 4 -34 8 -34 5 0 19 -9 32 -20 27 -23 26 -23
189 -24 90 -1 125 -4 128 -13 5 -14 73 -18 73 -5 0 5 16 14 35 22 19 7 36 19
39 27 7 18 26 17 26 -2 0 -9 11 -21 25 -27 14 -6 25 -15 25 -20 0 -4 50 -8
110 -8 61 0 110 4 110 8 0 5 30 14 66 21 37 6 72 18 80 25 19 19 220 30 309
17 39 -6 168 -11 287 -11 207 0 318 11 318 31 0 5 7 9 15 9 8 0 17 14 21 35 3
20 14 43 23 52 13 13 16 38 16 128 l0 111 -32 29 c-62 58 -61 58 -157 59 -76
0 -96 -3 -110 -17 -10 -9 -22 -17 -27 -17 -15 0 -10 -70 5 -86 19 -18 52 -18
60 1 8 22 68 19 96 -5 13 -11 27 -20 32 -20 4 0 8 -20 8 -45 0 -25 -3 -45 -8
-45 -4 0 -13 -13 -20 -30 -18 -39 -38 -42 -256 -38 -132 2 -180 6 -184 16 -2
6 -11 12 -21 12 -38 0 -41 16 -41 261 0 147 -4 239 -10 241 -5 2 -13 26 -16
53 -4 28 -10 52 -13 55 -12 10 -31 77 -31 109 0 18 -6 39 -14 46 -7 8 -17 39
-21 69 -3 31 -10 56 -14 56 -4 0 -13 16 -20 35 -7 19 -16 35 -19 35 -4 0 -14
21 -22 48 -7 26 -20 53 -27 60 -7 7 -13 22 -13 33 0 10 -4 19 -8 19 -5 0 -14
11 -22 24 -7 14 -26 30 -41 37 -16 6 -29 15 -29 20 0 4 -8 10 -19 14 -10 3
-31 17 -47 30 -16 14 -35 25 -42 25 -7 0 -20 6 -27 14 -8 7 -37 16 -66 20 -29
4 -57 14 -63 22 -6 8 -35 17 -63 21 -39 4 -54 11 -58 24 -4 11 -12 19 -20 19
-7 0 -16 12 -20 27 -3 15 -11 31 -17 34 -8 5 -6 13 5 24 10 9 17 23 17 31 0 8
4 14 9 14 4 0 14 27 20 60 7 33 16 60 22 60 14 0 12 157 -3 163 -17 5 -16 144
0 174 15 27 16 143 2 143 -5 0 -10 9 -10 20 0 11 -4 20 -9 20 -11 0 -141 -129
-141 -140 0 -18 -34 -28 -59 -18 -15 5 -81 8 -148 7 l-122 -3 -59 59 c-32 33
-61 68 -65 78 -13 35 -34 17 -47 -40z"/>
</g>
</svg>
